Coordinates
version=1
nRows=46
nColumns=24
inDegrees=yes

Units are S.I. units (second, meters, Newtons, ...)
If the header above contains a line with 'inDegrees', this indicates whether rotational values are in degrees (yes) or radians (no).

endheader
time	pelvis_tilt	pelvis_list	pelvis_rotation	pelvis_tx	pelvis_ty	pelvis_tz	hip_flexion_r	hip_adduction_r	hip_rotation_r	knee_angle_r	ankle_angle_r	subtalar_angle_r	mtp_angle_r	hip_flexion_l	hip_adduction_l	hip_rotation_l	knee_angle_l	ankle_angle_l	subtalar_angle_l	mtp_angle_l	lumbar_extension	lumbar_bending	lumbar_rotation
3.950000	9.996183	1.988925	-179.236981	0.304695	0.480049	-1.223088	82.009696	-30.185721	-6.462141	-118.855329	43.259739	8.998150	0.000000	86.956760	-34.370533	3.455283	-116.884414	42.690748	22.399211	0.000000	-11.975522	1.487767	4.241780
3.955000	9.986269	1.984190	-179.209426	0.304738	0.479279	-1.223178	82.102908	-30.196485	-6.394902	-118.990958	43.301159	8.995671	0.000000	87.069701	-34.352647	3.537632	-116.998146	42.721191	22.452175	0.000000	-11.990646	1.486909	4.242273
3.960000	9.987238	1.997258	-179.211459	0.304798	0.478573	-1.223271	82.204952	-30.174155	-6.357189	-119.120652	43.331871	8.944082	0.000000	87.203008	-34.368838	3.631327	-117.110015	42.737328	22.476658	0.000000	-12.017526	1.485586	4.244071
3.965000	9.985701	2.033709	-179.214227	0.304864	0.477860	-1.223314	82.294911	-30.151918	-6.336841	-119.253133	43.346075	8.911329	0.000000	87.334724	-34.385595	3.699838	-117.197011	42.776324	22.358165	0.000000	-12.026204	1.539746	4.283995
3.970000	9.963303	2.024604	-179.204456	0.304918	0.477186	-1.223322	82.383037	-30.165206	-6.268420	-119.382775	43.387838	8.877372	0.000000	87.439605	-34.378397	3.799176	-117.350142	42.755004	22.409444	0.000000	-12.070220	1.529502	4.273869
3.975000	9.947145	2.033330	-179.201905	0.305008	0.476535	-1.223384	82.452133	-30.160157	-6.231015	-119.490233	43.389635	8.875710	0.000000	87.538905	-34.390914	3.875308	-117.450734	42.799256	22.432056	0.000000	-12.107567	1.533978	4.331937
3.980000	9.911181	2.015092	-179.168667	0.305091	0.475894	-1.223482	82.510313	-30.188675	-6.167174	-119.608787	43.429689	8.875537	0.000000	87.603157	-34.376111	3.924675	-117.542423	42.794046	22.464417	0.000000	-12.143537	1.550087	4.226147
3.985000	9.891449	2.011798	-179.157077	0.305199	0.475275	-1.223475	82.587685	-30.202802	-6.113129	-119.712502	43.430550	8.885085	0.000000	87.690245	-34.357602	3.989340	-117.641542	42.812059	22.471573	0.000000	-12.207772	1.524363	4.267166
3.990000	9.884570	2.032149	-179.174970	0.305259	0.474662	-1.223503	82.676144	-30.183906	-6.086550	-119.827798	43.431787	8.882477	0.000000	87.788732	-34.384992	4.049463	-117.719507	42.852659	22.443642	0.000000	-12.224021	1.573341	4.252240
3.995000	9.879597	2.043805	-179.169008	0.305308	0.474059	-1.223526	82.762503	-30.204790	-6.064163	-119.946237	43.451322	8.854105	0.000000	87.922853	-34.386877	4.167606	-117.860740	42.821334	22.475102	0.000000	-12.216882	1.628718	4.196153
4.000000	9.852545	2.044734	-179.153586	0.305372	0.473522	-1.223521	82.815505	-30.223684	-6.020776	-120.043512	43.454712	8.852599	0.000000	87.988358	-34.369527	4.229568	-117.955615	42.830416	22.478687	0.000000	-12.284714	1.598123	4.234168
4.005000	9.854448	2.052574	-179.143156	0.305479	0.472979	-1.223581	82.878900	-30.229041	-5.993362	-120.116286	43.490058	8.878512	0.000000	88.084068	-34.365035	4.293240	-118.020978	42.878586	22.529543	0.000000	-12.291821	1.632845	4.209416
4.010000	9.831702	2.040999	-179.100379	0.305592	0.472484	-1.223642	82.930728	-30.270354	-5.947520	-120.202599	43.506887	8.903868	0.000000	88.143905	-34.326961	4.335241	-118.091329	42.880475	22.561700	0.000000	-12.316894	1.646435	4.152386
4.015000	9.804802	2.032892	-179.067627	0.305680	0.472025	-1.223638	82.986142	-30.311638	-5.902887	-120.292691	43.532721	8.902296	0.000000	88.202527	-34.301333	4.374987	-118.165509	42.878819	22.568260	0.000000	-12.365166	1.630759	4.171847
4.020000	9.777834	2.033200	-179.058171	0.305744	0.471552	-1.223613	83.046166	-30.335929	-5.868036	-120.391432	43.558376	8.888355	0.000000	88.247697	-34.302319	4.389209	-118.215027	42.895404	22.538973	0.000000	-12.407845	1.643869	4.182248
4.025000	9.735873	2.018302	-179.058323	0.305780	0.471119	-1.223576	83.090831	-30.358689	-5.814486	-120.482239	43.570952	8.882058	0.000000	88.291466	-34.313868	4.442596	-118.336628	42.898927	22.543806	0.000000	-12.446143	1.662818	4.183929
4.030000	9.720614	2.011686	-179.039340	0.305878	0.470701	-1.223581	83.142483	-30.383203	-5.780886	-120.556026	43.589369	8.883305	0.000000	88.349598	-34.303661	4.479223	-118.399839	42.914380	22.608996	0.000000	-12.471909	1.661342	4.197927
4.035000	9.729588	1.989752	-179.033231	0.306010	0.470253	-1.223585	83.234050	-30.400408	-5.722174	-120.622746	43.568926	8.913480	0.000000	88.404136	-34.303171	4.450302	-118.440675	42.919244	22.586846	0.000000	-12.469341	1.657730	4.221112
4.040000	9.694881	1.974661	-179.026296	0.306060	0.469853	-1.223590	83.275329	-30.425115	-5.674109	-120.701975	43.578310	8.912300	0.000000	88.446473	-34.305458	4.503243	-118.540570	42.921683	22.599953	0.000000	-12.511927	1.651803	4.240161
4.045000	9.666116	1.977566	-179.028036	0.306135	0.469456	-1.223619	83.315962	-30.433689	-5.652753	-120.779056	43.596133	8.913185	0.000000	88.478188	-34.323206	4.513630	-118.565316	42.937261	22.603577	0.000000	-12.541278	1.679477	4.244023
4.050000	9.622204	1.965129	-179.022432	0.306235	0.469040	-1.223624	83.358838	-30.457768	-5.608673	-120.860186	43.612887	8.911489	0.000000	88.523356	-34.326001	4.574949	-118.663259	42.940556	22.615203	0.000000	-12.596244	1.673537	4.259230
4.055000	9.616898	1.962023	-179.003690	0.306282	0.468774	-1.223638	83.394076	-30.491670	-5.598368	-120.907357	43.664626	8.916729	0.000000	88.566345	-34.321105	4.594778	-118.705940	42.933972	22.667161	0.000000	-12.603141	1.670410	4.288209
4.060000	9.610526	1.971729	-179.017015	0.306364	0.468413	-1.223681	83.399515	-30.472075	-5.445811	-120.924803	43.886824	9.581958	0.000000	88.634304	-34.360824	4.638780	-118.759954	42.950878	22.760904	0.000000	-12.606335	1.694189	4.322171
4.065000	9.550412	1.941200	-178.987986	0.306412	0.468084	-1.223678	83.433811	-30.549463	-5.532252	-121.027018	43.713915	9.061670	0.000000	88.614236	-34.359045	4.619501	-118.817079	42.965021	22.797130	0.000000	-12.676575	1.687201	4.258496
4.070000	9.528777	1.938376	-178.987551	0.306564	0.467695	-1.223672	83.441804	-30.542344	-5.317134	-121.005540	44.044950	9.864629	0.000000	88.673388	-34.365229	4.653683	-118.882391	42.956941	22.817921	0.000000	-12.702038	1.717761	4.261352
4.075000	9.486272	1.929707	-178.987039	0.306599	0.467443	-1.223636	83.513392	-30.592656	-5.484114	-121.158472	43.696751	8.998431	0.000000	88.665703	-34.383059	4.629737	-118.913431	42.947773	22.735975	0.000000	-12.744650	1.730740	4.255748
4.080000	9.513824	1.934331	-178.999866	0.306645	0.467166	-1.223588	83.540935	-30.569562	-5.274292	-121.117555	44.033782	9.817590	0.000000	88.766238	-34.401352	4.692904	-118.995624	42.931693	22.814748	0.000000	-12.710145	1.741177	4.320680
4.085000	9.457760	1.921858	-178.984321	0.306702	0.466945	-1.223621	83.571359	-30.613594	-5.392366	-121.256850	43.759589	9.209450	0.000000	88.749915	-34.407207	4.700310	-119.037632	42.938072	22.844140	0.000000	-12.757198	1.771556	4.257759
4.090000	9.465285	1.917742	-178.978544	0.306851	0.466621	-1.223656	83.585404	-30.597165	-5.220625	-121.205253	44.083992	9.856270	0.000000	88.811575	-34.407437	4.719845	-119.069316	42.935574	22.870813	0.000000	-12.744025	1.777502	4.294407
4.095000	9.424405	1.895537	-178.943500	0.306896	0.466371	-1.223638	83.641151	-30.671174	-5.361189	-121.336301	43.734143	9.124736	0.000000	88.797404	-34.390129	4.704981	-119.101656	42.968857	22.913046	0.000000	-12.803224	1.734923	4.319583
4.100000	9.428348	1.910845	-178.950404	0.307012	0.466107	-1.223644	83.634186	-30.634701	-5.166693	-121.284613	44.086707	9.925246	0.000000	88.870303	-34.406934	4.747137	-119.140641	42.962918	22.933727	0.000000	-12.796910	1.760187	4.386197
4.105000	9.374703	1.899674	-178.945774	0.307079	0.465847	-1.223626	83.700856	-30.674813	-5.316404	-121.440289	43.751013	9.086978	0.000000	88.867391	-34.419473	4.759632	-119.196150	42.983639	22.948114	0.000000	-12.839847	1.788214	4.366937
4.110000	9.385618	1.875236	-178.953242	0.307191	0.465585	-1.223548	83.739119	-30.655911	-5.070384	-121.396125	44.071202	9.852253	0.000000	88.912927	-34.422313	4.742124	-119.253550	42.957095	22.935067	0.000000	-12.822763	1.795728	4.377119
4.115000	9.333650	1.840352	-178.940304	0.307252	0.465376	-1.223556	83.799582	-30.699038	-5.194463	-121.529898	43.729299	9.041975	0.000000	88.876472	-34.427134	4.711175	-119.290445	42.962955	22.975998	0.000000	-12.873422	1.779032	4.369117
4.120000	9.371315	1.847328	-178.939612	0.307321	0.465148	-1.223558	83.808166	-30.670141	-5.006581	-121.459766	44.054937	9.842260	0.000000	88.962785	-34.433533	4.739181	-119.305619	42.937352	23.000867	0.000000	-12.821781	1.792909	4.418961
4.125000	9.292104	1.833139	-178.927080	0.307402	0.464945	-1.223580	83.833070	-30.701428	-5.144908	-121.598124	43.729491	9.077172	0.000000	88.925278	-34.443503	4.743755	-119.350124	42.936693	23.015383	0.000000	-12.909912	1.803753	4.361743
4.130000	9.326706	1.850384	-178.947831	0.307513	0.464719	-1.223568	83.860826	-30.652647	-4.965234	-121.542356	44.059467	9.821049	0.000000	89.024330	-34.462493	4.790385	-119.383777	42.922834	23.008167	0.000000	-12.862178	1.831930	4.427177
4.135000	9.281673	1.848528	-178.947492	0.307554	0.464566	-1.223569	83.906737	-30.680815	-5.133040	-121.673146	43.736028	9.006368	0.000000	89.019485	-34.477002	4.805724	-119.423386	42.920324	22.986330	0.000000	-12.901103	1.835339	4.437257
4.140000	9.290335	1.855077	-178.942914	0.307692	0.464376	-1.223589	83.891635	-30.648492	-4.933291	-121.607182	44.095711	9.816486	0.000000	89.084209	-34.477487	4.847385	-119.460276	42.906500	23.038245	0.000000	-12.886251	1.854356	4.443557
4.145000	9.256336	1.836102	-178.914786	0.307792	0.464226	-1.223609	83.942090	-30.697987	-5.087324	-121.720655	43.754898	9.019162	0.000000	89.061425	-34.464426	4.816636	-119.459250	42.924082	23.050403	0.000000	-12.920683	1.841418	4.417523
4.150000	9.258357	1.850145	-178.909831	0.307913	0.464061	-1.223596	83.911709	-30.666144	-4.900397	-121.647929	44.091635	9.835149	0.000000	89.116614	-34.466721	4.844475	-119.477741	42.914320	23.080298	0.000000	-12.913016	1.871406	4.426381
4.155000	9.220536	1.841594	-178.911138	0.307934	0.463906	-1.223571	83.971063	-30.694717	-5.065890	-121.777915	43.739381	8.976859	0.000000	89.112988	-34.483001	4.855818	-119.517975	42.914735	23.111011	0.000000	-12.933048	1.873519	4.451909
4.160000	9.217183	1.853336	-178.913169	0.308020	0.463697	-1.223538	83.960368	-30.663242	-4.874600	-121.730965	44.063445	9.719135	0.000000	89.168337	-34.492494	4.883419	-119.557639	42.879709	23.062309	0.000000	-12.925059	1.904665	4.475316
4.165000	9.173295	1.834978	-178.891962	0.308079	0.463557	-1.223537	84.006297	-30.708816	-5.023741	-121.850280	43.726085	8.934992	0.000000	89.114744	-34.484613	4.815874	-119.529189	42.908677	22.981016	0.000000	-12.961145	1.899565	4.462656
4.170000	9.200204	1.823337	-178.873367	0.308184	0.463437	-1.223559	84.001995	-30.690336	-4.814736	-121.765625	44.077106	9.743941	0.000000	89.176666	-34.462291	4.846398	-119.558758	42.879220	23.076745	0.000000	-12.914551	1.899608	4.468495
4.175000	9.133875	1.800338	-178.833126	0.308322	0.463321	-1.223641	84.022801	-30.739153	-4.963618	-121.882178	43.754043	8.951328	0.000000	89.132892	-34.439308	4.834142	-119.564188	42.876185	23.107705	0.000000	-12.996042	1.876373	4.420072
